<?xml version="1.0" encoding="UTF-8" standalone="no"?>
<svg xmlns:xlink="http://www.w3.org/1999/xlink" height="29.5px" width="28.3px" xmlns="http://www.w3.org/2000/svg">
  <g transform="matrix(1.0, 0.0, 0.0, 1.0, 13.9, 28.9)">
    <use height="29.5" transform="matrix(1.0, 0.0, 0.0, 1.0, -13.25, -28.9)" width="27.65" xlink:href="#shape0"/>
  </g>
  <defs>
    <g id="shape0" transform="matrix(1.0, 0.0, 0.0, 1.0, 13.25, 28.9)">
      <path d="M-12.45 -17.2 L-12.7 -17.65 -12.45 -17.2 M-13.2 -19.95 L-13.25 -20.05 -13.2 -20.0 -13.2 -19.95" fill="#5a3c1d" fill-rule="evenodd" stroke="none"/>
      <path d="M13.45 -9.7 Q13.35 -9.35 13.7 -8.2 L-0.25 -2.6 13.45 -9.7" fill="#d08515" fill-rule="evenodd" stroke="none"/>
      <path d="M13.7 -8.2 L14.05 -7.7 -0.15 -1.05 Q-0.4 -1.9 -0.25 -2.6 L13.7 -8.2" fill="#fed23d" fill-rule="evenodd" stroke="none"/>
      <path d="M1.05 -17.5 Q1.55 -17.5 1.95 -17.1 2.35 -16.75 2.35 -16.2 2.35 -15.65 1.95 -15.25 1.55 -14.9 1.05 -14.9 0.5 -14.9 0.1 -15.25 -0.3 -15.65 -0.3 -16.2 -0.3 -16.75 0.1 -17.1 0.5 -17.5 1.05 -17.5 M5.85 -18.85 L5.2 -21.9 4.9 -20.2 0.9 -18.45 -0.95 -19.7 -0.1 -22.3 -3.4 -22.55 -1.75 -20.55 -2.75 -16.05 -1.1 -14.8 -0.35 -12.9 -2.75 -13.35 -4.35 -12.5 -3.1 -10.35 -3.05 -12.2 -0.3 -12.75 1.05 -13.3 Q4.35 -15.0 1.95 -11.7 1.85 -8.9 5.15 -9.85 L3.45 -11.0 4.95 -12.1 5.1 -16.15 7.2 -13.5 8.95 -15.7 2.6 -19.15 5.85 -18.85 M-13.2 -20.0 Q-13.15 -21.0 -12.45 -21.9 L2.4 -28.9 14.4 -11.0 -0.45 -4.0 -12.45 -21.9 -0.8 -3.6 -0.8 -2.35 Q-6.8 -9.6 -13.2 -19.95 L-13.2 -20.0 M-5.0 -17.65 L-3.3 -16.4 -5.35 -18.65 -6.8 -16.75 -5.0 -17.65" fill="#ff0000" fill-rule="evenodd" stroke="none"/>
      <path d="M-13.2 -20.0 L-13.2 -19.95 -13.2 -20.0" fill="#d20202" fill-rule="evenodd" stroke="none"/>
      <path d="M13.7 -8.2 L14.4 -7.15 -0.55 0.6 -12.45 -17.2 -13.2 -19.95 Q-6.8 -9.6 -0.8 -2.35 L-0.8 -3.6 -0.45 -4.0 14.4 -11.0 13.45 -9.7 -0.25 -2.6 Q-0.4 -1.9 -0.15 -1.05 L14.05 -7.7 13.7 -8.2" fill="#a00101" fill-rule="evenodd" stroke="none"/>
      <path d="M-0.8 -3.6 L-12.45 -21.9 -0.45 -4.0 -0.8 -3.6" fill="#ffffff" fill-rule="evenodd" stroke="none"/>
      <path d="M5.85 -18.85 L2.6 -19.15 8.95 -15.7 7.2 -13.5 5.1 -16.15 4.95 -12.1 3.45 -11.0 5.15 -9.85 Q1.85 -8.9 1.95 -11.7 4.35 -15.0 1.05 -13.3 L-0.3 -12.75 -3.05 -12.2 -3.1 -10.35 -4.35 -12.5 -2.75 -13.35 -0.35 -12.9 -1.1 -14.8 -2.75 -16.05 -1.75 -20.55 -3.4 -22.55 -0.1 -22.3 -0.95 -19.7 0.9 -18.45 4.9 -20.2 5.2 -21.9 5.85 -18.85 M1.05 -17.5 Q0.5 -17.5 0.1 -17.1 -0.3 -16.75 -0.3 -16.2 -0.3 -15.65 0.1 -15.25 0.5 -14.9 1.05 -14.9 1.55 -14.9 1.95 -15.25 2.35 -15.65 2.35 -16.2 2.35 -16.75 1.95 -17.1 1.55 -17.5 1.05 -17.5 M-5.0 -17.65 L-6.8 -16.75 -5.35 -18.65 -3.3 -16.4 -5.0 -17.65" fill="#ffcc00" fill-rule="evenodd" stroke="none"/>
    </g>
  </defs>
</svg>
