<?xml version="1.0" encoding="UTF-8" standalone="no"?>
<svg xmlns:xlink="http://www.w3.org/1999/xlink" height="20.9px" width="23.95px" xmlns="http://www.w3.org/2000/svg">
  <g transform="matrix(1.0, 0.0, 0.0, 1.0, 11.95, 19.3)">
    <path d="M-9.45 -7.45 L-9.35 -8.45 -9.3 -8.5 -9.3 -8.45 -9.4 -7.45 -9.45 -7.45" fill="#e72121" fill-rule="evenodd" stroke="none"/>
    <path d="M3.2 -17.15 L3.2 -17.2 1.8 -16.1 1.35 -15.7 0.9 -15.25 0.45 -15.3 0.25 -15.55 -0.3 -16.2 -1.55 -17.55 Q-1.2 -16.55 -1.25 -15.5 L-1.35 -15.1 -3.45 -15.65 -2.5 -14.8 -2.2 -14.6 -2.35 -14.55 -3.4 -14.8 -4.05 -15.45 -5.15 -15.5 -4.5 -15.7 -3.05 -16.05 -2.05 -15.85 -1.6 -15.7 -1.65 -16.25 -1.9 -17.2 -2.1 -18.25 -1.55 -18.15 -0.35 -17.05 0.3 -16.2 0.65 -15.65 1.05 -16.1 1.45 -16.4 2.5 -17.25 3.75 -18.1 3.8 -17.95 3.65 -17.25 3.15 -15.7 4.05 -16.1 5.25 -16.6 6.25 -16.65 6.9 -16.5 6.3 -15.95 5.3 -15.1 4.7 -14.5 3.35 -14.05 4.55 -15.0 5.85 -16.25 5.85 -16.35 Q4.45 -16.25 3.55 -15.45 3.1 -15.0 2.6 -15.05 L2.55 -15.2 3.2 -17.15" fill="#138e37" fill-rule="evenodd" stroke="none"/>
    <path d="M3.2 -17.2 L3.2 -17.15 2.55 -15.2 2.6 -15.05 Q3.1 -15.0 3.55 -15.45 4.45 -16.25 5.85 -16.35 L5.85 -16.25 4.55 -15.0 3.35 -14.05 Q2.2 -15.15 0.9 -15.25 L1.35 -15.7 1.8 -16.1 3.2 -17.2 M-2.2 -14.6 L-2.5 -14.8 -3.45 -15.65 -1.35 -15.1 -1.25 -15.5 Q-1.2 -16.55 -1.55 -17.55 L-0.3 -16.2 0.25 -15.55 0.45 -15.3 -2.2 -14.6" fill="#0e6126" fill-rule="evenodd" stroke="none"/>
    <path d="M0.3 -16.2 L0.35 -17.5 Q0.35 -17.95 0.5 -17.95 L0.65 -17.9 Q0.65 -18.15 1.1 -18.1 1.65 -18.1 1.7 -17.55 L1.65 -17.5 1.65 -17.3 1.5 -16.75 1.45 -16.4 1.05 -16.1 0.65 -15.65 0.3 -16.2" fill="#0f6829" fill-rule="evenodd" stroke="none"/>
    <path d="M3.8 -19.15 L4.4 -18.85 Q4.8 -18.6 4.8 -17.95 L4.8 -17.75 4.8 -17.7 4.8 -17.6 5.05 -17.65 6.1 -17.7 6.25 -17.7 6.3 -17.7 7.15 -17.5 7.75 -17.0 7.9 -16.25 7.5 -15.6 6.95 -15.1 6.9 -15.05 6.85 -15.0 6.75 -14.95 Q11.35 -14.1 12.0 -7.8 L12.0 -7.7 Q12.0 -3.05 9.1 -0.7 6.2 1.6 0.5 1.6 -9.65 1.55 -11.6 -3.85 L-11.6 -3.8 -11.65 -4.0 -11.95 -6.3 Q-12.05 -8.7 -11.15 -10.75 -9.4 -14.6 -6.35 -15.3 L-6.3 -15.75 -5.9 -16.35 -4.8 -16.75 -3.25 -17.1 -3.15 -17.1 -3.3 -18.0 -3.3 -17.95 -3.25 -18.6 -2.85 -19.1 -2.8 -19.15 -2.2 -19.3 -1.25 -19.15 -1.1 -19.05 -1.05 -19.05 -0.5 -18.6 -0.1 -18.9 Q0.25 -19.2 1.0 -19.15 2.0 -19.15 2.4 -18.55 L3.1 -19.0 3.8 -19.15 M3.2 -17.15 L3.2 -17.2 3.2 -17.15 M0.9 -15.25 Q2.2 -15.15 3.35 -14.05 L4.7 -14.5 5.3 -15.1 6.3 -15.95 6.9 -16.5 6.25 -16.65 5.25 -16.6 4.05 -16.1 3.15 -15.7 3.65 -17.25 3.8 -17.95 3.75 -18.1 2.5 -17.25 1.45 -16.4 1.5 -16.75 1.65 -17.3 1.65 -17.5 1.7 -17.55 Q1.65 -18.1 1.1 -18.1 0.65 -18.15 0.65 -17.9 L0.5 -17.95 Q0.35 -17.95 0.35 -17.5 L0.3 -16.2 -0.35 -17.05 -1.55 -18.15 -2.1 -18.25 -1.9 -17.2 -1.65 -16.25 -1.6 -15.7 -2.05 -15.85 -3.05 -16.05 -4.5 -15.7 -5.15 -15.5 -4.05 -15.45 -3.4 -14.8 -2.35 -14.55 -2.2 -14.6 0.45 -15.3 0.9 -15.25 M5.85 -16.25 L5.85 -16.35 5.85 -16.25 M3.2 -13.3 Q2.0 -14.65 0.45 -14.6 -0.8 -14.6 -2.3 -13.85 -7.6 -15.5 -10.0 -10.25 -10.75 -8.45 -10.65 -6.3 L-10.4 -4.15 Q-8.5 0.5 0.65 0.55 11.05 0.55 11.05 -7.65 10.45 -13.9 5.25 -13.9 4.5 -13.9 3.2 -13.3" fill="#000000" fill-rule="evenodd" stroke="none"/>
    <path d="M-6.85 -12.35 L-6.8 -12.35 -6.25 -12.6 -5.25 -12.8 -5.15 -12.8 -5.0 -12.6 -4.7 -12.3 Q-4.7 -11.8 -5.35 -11.15 -6.1 -10.4 -6.75 -10.35 L-7.25 -10.15 -7.5 -9.95 Q-8.0 -9.95 -8.1 -10.5 -8.1 -11.1 -7.25 -11.95 L-6.85 -12.35 M5.95 -11.35 L5.4 -10.95 4.95 -11.3 Q4.95 -11.75 5.3 -11.9 L5.75 -11.95 6.0 -11.7 5.95 -11.35 M-2.2 -11.85 Q-2.15 -11.5 -1.9 -11.5 -0.95 -11.55 -0.95 -12.2 -0.95 -12.6 -1.2 -12.55 -2.2 -12.55 -2.2 -11.85 M-1.0 -11.3 Q-1.65 -10.65 -2.45 -10.65 -2.9 -10.65 -2.9 -11.0 -2.9 -11.6 -2.15 -12.3 -1.45 -12.95 -0.9 -12.95 -0.5 -12.95 -0.4 -12.35 -0.4 -11.85 -1.0 -11.3 M-7.25 -11.4 L-6.85 -11.05 Q-5.5 -11.1 -5.5 -12.2 L-5.8 -12.5 Q-7.25 -12.55 -7.25 -11.4" fill="#ff9191" fill-rule="evenodd" stroke="none"/>
    <path d="M-2.2 -11.85 Q-2.2 -12.55 -1.2 -12.55 -0.95 -12.6 -0.95 -12.2 -0.95 -11.55 -1.9 -11.5 -2.15 -11.5 -2.2 -11.85 M-7.25 -11.4 Q-7.25 -12.55 -5.8 -12.5 L-5.5 -12.2 Q-5.5 -11.1 -6.85 -11.05 L-7.25 -11.4" fill="#ffe6e6" fill-rule="evenodd" stroke="none"/>
    <path d="M2.5 -12.8 Q1.65 -13.5 0.6 -13.5 L0.45 -13.5 -1.4 -13.3 -2.0 -13.0 -2.05 -12.95 -2.95 -12.0 -4.2 -10.95 Q-4.6 -11.0 -4.6 -11.2 L-3.8 -12.65 -4.75 -12.8 -5.15 -12.8 -5.25 -12.8 -6.25 -12.6 -6.8 -12.35 -6.85 -12.35 Q-7.95 -11.7 -8.7 -10.25 L-8.75 -10.2 -9.3 -8.5 -9.35 -8.45 -9.45 -7.45 Q-9.45 -5.9 -8.7 -4.15 -6.35 -0.8 2.25 -0.8 9.7 -0.8 9.75 -7.5 9.75 -8.6 8.75 -10.85 7.85 -12.75 6.25 -12.95 L5.85 -12.95 5.7 -12.95 5.65 -12.95 5.35 -12.95 4.15 -12.35 Q3.85 -12.1 3.85 -11.75 L4.15 -11.0 4.0 -10.95 3.0 -12.4 2.95 -12.35 2.5 -12.8 M3.2 -13.3 Q4.5 -13.9 5.25 -13.9 10.45 -13.9 11.05 -7.65 11.05 0.55 0.65 0.55 -8.5 0.5 -10.4 -4.15 L-10.65 -6.3 Q-10.75 -8.45 -10.0 -10.25 -7.6 -15.5 -2.3 -13.85 -0.8 -14.6 0.45 -14.6 2.0 -14.65 3.2 -13.3" fill="#a01212" fill-rule="evenodd" stroke="none"/>
    <path d="M-1.4 -13.3 L0.45 -13.5 0.6 -13.5 Q1.65 -13.5 2.5 -12.8 L-1.8 -13.1 -1.4 -13.3 M-5.15 -12.8 L-4.75 -12.8 -4.95 -12.7 -5.0 -12.6 -5.15 -12.8" fill="#ce1717" fill-rule="evenodd" stroke="none"/>
    <path d="M4.15 -12.35 L5.35 -12.95 5.65 -12.95 5.7 -12.95 5.85 -12.95 6.25 -12.95 Q7.85 -12.75 8.75 -10.85 9.75 -8.6 9.75 -7.5 9.7 -0.8 2.25 -0.8 -6.35 -0.8 -8.7 -4.15 -9.45 -5.9 -9.45 -7.45 L-9.4 -7.45 -9.3 -8.45 -9.3 -8.5 -8.75 -10.2 -8.7 -10.25 Q-7.95 -11.7 -6.85 -12.35 L-7.25 -11.95 Q-8.1 -11.1 -8.1 -10.5 -8.0 -9.95 -7.5 -9.95 L-7.25 -10.15 Q-8.15 -9.05 -8.15 -7.45 -8.15 -6.1 -3.25 -6.1 0.65 -6.1 3.55 -7.9 6.05 -9.5 6.05 -11.05 L5.95 -11.35 6.0 -11.7 5.75 -11.95 5.3 -11.9 4.15 -12.35" fill="#dc0a0a" fill-rule="evenodd" stroke="none"/>
    <path d="M-1.4 -13.3 L-1.8 -13.1 2.5 -12.8 2.95 -12.35 3.0 -12.4 4.0 -10.95 4.15 -11.0 3.85 -11.75 Q3.85 -12.1 4.15 -12.35 L5.3 -11.9 Q4.95 -11.75 4.95 -11.3 L5.4 -10.95 5.95 -11.35 6.05 -11.05 Q6.05 -9.5 3.55 -7.9 0.65 -6.1 -3.25 -6.1 -8.15 -6.1 -8.15 -7.45 -8.15 -9.05 -7.25 -10.15 L-6.75 -10.35 Q-6.1 -10.4 -5.35 -11.15 -4.7 -11.8 -4.7 -12.3 L-5.0 -12.6 -4.95 -12.7 -4.75 -12.8 -3.8 -12.65 -4.6 -11.2 Q-4.6 -11.0 -4.2 -10.95 L-2.95 -12.0 -2.05 -12.95 -2.0 -13.0 -1.4 -13.3 M-1.0 -11.3 Q-0.4 -11.85 -0.4 -12.35 -0.5 -12.95 -0.9 -12.95 -1.45 -12.95 -2.15 -12.3 -2.9 -11.6 -2.9 -11.0 -2.9 -10.65 -2.45 -10.65 -1.65 -10.65 -1.0 -11.3" fill="#ff3333" fill-rule="evenodd" stroke="none"/>
  </g>
</svg>
