<?xml version="1.0" encoding="UTF-8" standalone="no"?>
<svg xmlns:xlink="http://www.w3.org/1999/xlink" height="33.95px" width="29.65px" xmlns="http://www.w3.org/2000/svg">
  <g transform="matrix(1.0, 0.0, 0.0, 1.0, 15.4, 30.5)">
    <path d="M-9.05 -30.35 L-8.55 -30.5 12.0 -30.5 12.6 -30.3 13.3 -30.3 13.95 -30.05 14.25 -29.45 14.15 -28.8 9.6 -20.85 13.8 -10.9 13.85 -10.45 13.75 -10.0 10.7 -4.35 11.05 -3.4 12.65 -1.05 12.85 -0.4 12.75 -0.1 13.05 0.25 13.15 0.45 Q13.45 1.15 13.15 1.55 L13.05 1.75 Q11.65 3.5 9.05 3.0 L8.9 2.95 8.2 2.7 7.05 2.9 5.8 2.65 Q5.25 3.05 4.3 3.05 L2.8 2.7 2.4 2.7 1.6 2.7 0.95 2.7 0.65 2.75 Q0.45 2.8 0.2 3.1 L0.15 3.15 -0.4 3.45 -1.05 3.35 -1.5 2.9 -1.75 2.3 -8.2 3.15 -8.75 3.05 -9.0 2.9 -9.5 2.95 -10.05 2.85 -10.5 2.5 -13.05 -1.6 -13.2 -2.1 -13.05 -2.6 -9.6 -8.95 -15.3 -20.05 -15.4 -20.55 -15.25 -21.05 -9.4 -30.05 -9.05 -30.35" fill="#000000" fill-rule="evenodd" stroke="none"/>
    <path d="M-14.25 -20.3 L-8.4 -29.3 12.15 -29.3 12.0 -29.1 13.45 -29.1 8.6 -20.75 -12.95 -20.1 -12.8 -20.35 -14.25 -20.3 M13.0 -10.3 L9.55 -3.85 -10.75 -1.75 -10.55 -2.1 -12.05 -1.95 -8.35 -8.75 -7.2 -8.85 -7.05 -8.55 13.0 -10.3" fill="#a8d08c" fill-rule="evenodd" stroke="none"/>
    <path d="M8.95 -19.9 L13.0 -10.3 -7.05 -8.55 -7.2 -8.85 -8.35 -8.75 -12.5 -16.85 -11.4 -17.05 -11.2 -16.65 8.95 -19.9 M9.95 -3.25 L12.0 -0.3 -8.2 2.35 -8.4 2.0 -9.5 2.15 -10.75 0.15 -9.7 -0.05 -9.45 0.35 9.95 -3.25" fill="#cde3bd" fill-rule="evenodd" stroke="none"/>
    <path d="M8.6 -20.75 L8.95 -19.9 -11.2 -16.65 -11.4 -17.05 -12.5 -16.85 -14.25 -20.3 -12.8 -20.35 -12.95 -20.1 8.6 -20.75 M9.55 -3.85 L9.95 -3.25 -9.45 0.35 -9.7 -0.05 -10.75 0.15 -12.05 -1.95 -10.55 -2.1 -10.75 -1.75 9.55 -3.85" fill="#bfdcab" fill-rule="evenodd" stroke="none"/>
    <path d="M-1.15 -20.95 L-7.15 -20.9 -9.7 -20.75 -11.45 -20.65 -11.45 -20.7 -7.4 -27.35 2.7 -27.4 -1.15 -20.95" fill="#88a28a" fill-rule="evenodd" stroke="none"/>
    <path d="M-11.45 -20.65 L-9.7 -20.75 -7.15 -20.9 -1.15 -20.95 -1.35 -20.7 -0.1 -19.05 -10.95 -18.2 -11.7 -20.3 -11.5 -20.65 -11.45 -20.65" fill="#aabbaa" fill-rule="evenodd" stroke="none"/>
    <path d="M1.5 -23.25 L6.25 -23.25 M0.7 -21.4 L6.45 -21.4 M2.4 -25.3 L7.85 -25.3" fill="none" stroke="#7eba56" stroke-linecap="round" stroke-linejoin="round" stroke-width="1.0"/>
    <path d="M0.75 -19.3 L6.45 -19.7 M0.7 -6.15 L8.55 -6.9 M-7.85 -5.9 L-1.6 -6.2 M-8.3 -3.9 L-2.35 -4.55 M-8.35 0.75 L-3.9 0.15 M-9.9 -16.95 L7.0 -18.05 M-9.55 -14.85 L7.05 -16.2 M-8.6 -12.9 L8.45 -14.05 M-7.0 -10.95 L9.0 -12.0 M-6.75 -7.75 L9.4 -9.15 M0.15 -4.55 L6.0 -5.15 M-8.6 -0.9 L8.0 -2.8 M-1.7 0.1 L1.15 -0.35" fill="none" stroke="#96c675" stroke-linecap="round" stroke-linejoin="round" stroke-width="1.0"/>
    <path d="M4.15 -27.1 L10.0 -27.1" fill="none" stroke="#7eba56" stroke-linecap="round" stroke-linejoin="round" stroke-width="1.0"/>
    <path d="M2.25 -7.15 L2.05 -7.2 2.1 -7.2 2.25 -7.15 M1.1 -7.45 Q1.0 -4.5 2.55 -1.65 L2.1 -1.5 1.5 -1.35 Q-2.1 -0.7 -0.45 2.65 L-0.4 2.6 Q0.1 2.1 0.5 2.0 L1.0 1.9 Q1.0 1.15 1.5 0.45 L1.35 0.1 Q1.35 -1.15 2.55 -1.15 L2.85 -1.05 Q4.0 -1.05 3.55 -0.1 L3.9 0.2 3.9 -0.5 3.4 -1.35 3.15 -1.35 3.15 -1.4 4.35 -2.2 4.35 -2.3 Q4.35 -5.2 1.1 -7.45 M4.7 -2.95 L4.75 -3.15 4.85 -3.95 5.0 -4.8 Q4.5 -6.9 1.2 -7.6 4.3 -5.75 4.7 -2.95 M8.35 -1.45 L7.55 -1.5 Q6.4 -0.15 7.55 1.3 L7.85 1.65 8.0 1.35 8.3 1.05 8.7 1.0 8.55 0.2 8.35 -1.45 M9.35 2.2 Q11.35 2.6 12.4 1.3 L12.35 1.05 11.7 0.75 9.35 0.0 9.45 0.5 9.35 2.2 M11.85 0.4 Q10.9 -0.9 9.65 -1.6 L9.0 -1.75 9.1 -1.4 9.0 -0.45 10.0 -0.2 11.85 0.4 M1.35 -0.3 L0.75 -0.1 Q-0.35 0.45 -0.35 2.0 L-0.35 2.5 -0.4 2.6 -0.45 2.1 -0.25 0.5 Q0.15 -0.85 1.65 -0.85 L1.35 -0.3" fill="#45a94f" fill-rule="evenodd" stroke="none"/>
    <path d="M2.25 -7.15 L2.1 -7.2 2.05 -7.2 2.25 -7.15 M1.2 -7.6 L1.1 -7.65 1.1 -7.45 Q4.35 -5.2 4.35 -2.3 L4.35 -2.2 4.5 -2.3 4.6 -2.6 4.7 -2.9 4.7 -2.95 Q4.3 -5.75 1.2 -7.6 M1.0 1.9 L1.7 1.9 2.55 1.9 3.2 1.8 3.3 1.75 3.35 1.7 3.4 1.65 3.45 1.6 Q3.9 1.15 3.9 0.2 L3.55 -0.1 Q4.0 -1.05 2.85 -1.05 L2.55 -1.15 Q1.35 -1.15 1.35 0.1 L1.5 0.45 Q1.0 1.15 1.0 1.9 M8.35 -1.45 L8.55 0.2 8.7 1.0 8.3 1.05 8.0 1.35 7.85 1.65 9.35 2.2 9.45 0.5 9.35 0.0 11.7 0.75 12.35 1.05 11.85 0.4 10.0 -0.2 9.0 -0.45 9.1 -1.4 9.0 -1.75 8.35 -1.45 M1.35 -0.3 L1.65 -0.85 Q0.15 -0.85 -0.25 0.5 L-0.45 2.1 -0.4 2.6 -0.35 2.5 -0.35 2.0 Q-0.35 0.45 0.75 -0.1 L1.35 -0.3" fill="#398a41" fill-rule="evenodd" stroke="none"/>
    <path d="M10.2 -2.95 Q10.2 -4.4 7.75 -4.4 L6.8 -4.15 Q6.55 -5.05 5.2 -5.05 3.15 -5.05 3.15 -3.35 L3.15 -3.3 2.9 -3.35 Q1.6 -3.35 1.6 -1.65 1.6 -0.45 3.0 -0.4 L2.9 0.7 Q2.9 2.25 4.45 2.25 5.9 2.25 5.9 0.85 L5.85 1.3 Q6.15 2.1 7.2 2.1 8.75 2.1 9.25 0.25 9.25 -0.45 8.4 -0.75 9.55 -1.1 10.2 -2.95 M4.0 -1.15 Q3.9 -2.95 5.2 -2.95 7.3 -2.95 7.3 -0.85 7.25 0.3 5.5 0.3 4.0 0.3 4.0 -1.15" fill="#ffffff" fill-rule="evenodd" stroke="none"/>
    <path d="M4.0 -1.15 Q4.0 0.3 5.5 0.3 7.25 0.3 7.3 -0.85 7.3 -2.95 5.2 -2.95 3.9 -2.95 4.0 -1.15" fill="#f3e147" fill-rule="evenodd" stroke="none"/>
  </g>
</svg>
