<?xml version="1.0" encoding="UTF-8" standalone="no"?>
<svg xmlns:xlink="http://www.w3.org/1999/xlink" height="38.1px" width="42.35px" xmlns="http://www.w3.org/2000/svg">
  <g transform="matrix(1.0, 0.0, 0.0, 1.0, 17.9, 34.0)">
    <path d="M11.5 -32.55 L13.45 -32.95 13.55 -33.05 13.55 -33.1 14.3 -33.55 14.35 -33.55 15.4 -33.8 16.4 -33.7 17.6 -33.95 18.1 -33.95 18.5 -33.7 20.25 -31.95 20.55 -31.5 23.65 -19.65 24.35 -18.25 24.4 -17.55 22.85 -12.25 22.4 -11.7 21.75 -11.55 17.4 -12.2 16.75 -12.6 Q16.5 -12.95 16.55 -13.35 L16.5 -13.5 16.55 -13.4 Q16.35 -13.85 16.4 -14.25 L16.45 -14.35 16.65 -15.4 16.65 -15.45 16.7 -15.7 16.95 -16.5 13.6 -20.5 11.05 -20.05 12.6 -18.3 12.85 -17.65 12.85 -14.05 12.7 -13.5 12.25 -13.15 11.7 -13.1 7.55 -13.75 6.8 -13.05 Q6.5 -12.75 6.1 -12.75 5.7 -12.75 5.4 -13.05 L4.3 -14.15 4.15 -14.0 Q3.85 -13.7 3.45 -13.7 3.0 -13.7 2.75 -14.0 L-6.55 -4.7 -5.75 -3.85 Q-5.45 -3.6 -5.45 -3.15 -5.45 -2.75 -5.75 -2.45 L-7.85 -0.35 Q-8.15 -0.05 -8.55 -0.05 -9.0 -0.05 -9.25 -0.35 L-10.05 -1.15 -10.1 -1.1 -8.7 0.3 -8.4 1.0 -8.7 1.7 -10.85 3.8 -11.55 4.1 -12.25 3.8 -13.65 2.4 -13.75 2.5 -14.45 2.75 -15.15 2.45 -16.6 0.95 -16.9 0.75 -17.6 0.0 -17.9 -0.7 -17.6 -1.4 -1.05 -17.9 -1.05 -18.2 -0.75 -18.9 5.5 -25.15 5.5 -26.35 Q5.5 -26.75 5.8 -27.05 L11.0 -32.25 Q11.2 -32.5 11.5 -32.55" fill="#000000" fill-rule="evenodd" stroke="none"/>
    <path d="M-0.45 -17.15 L-16.95 -0.65 -16.25 0.05 -14.5 1.8 -13.7 1.0 -11.6 3.1 -9.45 0.95 -11.55 -1.15 -10.15 -2.55 -8.65 -1.05 -6.5 -3.2 -8.0 -4.7 2.0 -14.7 1.45 -15.25 0.95 -14.75 0.55 -15.15 1.05 -15.65 0.7 -16.0 0.2 -15.5 -0.25 -15.95 0.25 -16.45 -0.45 -17.15 M-0.65 -15.55 L-15.75 -0.45 -16.2 -0.9 -1.1 -16.0 -0.65 -15.55 M0.1 -14.6 L0.6 -14.1 -14.4 0.9 -14.9 0.4 0.1 -14.6" fill="#b8bdcf" fill-rule="evenodd" stroke="none"/>
    <path d="M-0.65 -15.55 L-1.1 -16.0 -16.2 -0.9 -15.75 -0.45 -0.65 -15.55" fill="#e1e4ea" fill-rule="evenodd" stroke="none"/>
    <path d="M2.7 -15.4 L3.4 -14.7 4.25 -15.55 3.95 -15.85 3.55 -15.45 Q3.35 -15.25 3.1 -15.2 2.85 -15.25 2.7 -15.4 M5.35 -14.45 L6.05 -13.75 7.1 -14.8 11.85 -14.05 11.8 -17.7 9.9 -19.8 10.1 -20.9 13.95 -21.55 13.7 -21.9 9.85 -21.15 9.45 -21.25 Q8.85 -21.45 8.25 -21.75 L8.1 -21.6 7.8 -21.9 7.7 -22.3 7.9 -22.7 13.25 -28.05 13.4 -28.2 13.75 -28.35 14.1 -28.3 14.35 -28.05 22.0 -15.1 22.1 -14.9 22.05 -14.65 21.9 -14.1 19.9 -14.5 20.1 -15.9 15.9 -21.6 14.5 -20.9 18.05 -16.75 17.6 -15.4 17.6 -15.3 17.35 -14.15 17.4 -13.8 17.55 -13.55 17.5 -13.2 21.85 -12.55 23.35 -17.85 22.6 -19.3 19.5 -31.3 19.15 -31.65 19.25 -31.35 22.3 -19.6 22.35 -19.55 23.0 -18.3 23.05 -17.85 22.75 -16.95 22.45 -16.55 22.0 -16.5 21.55 -16.85 21.4 -17.2 21.7 -17.9 17.95 -25.55 16.2 -26.0 14.85 -28.35 14.75 -28.25 14.5 -28.6 Q14.35 -28.85 14.45 -29.05 L14.6 -29.4 17.4 -32.2 17.5 -32.3 18.0 -32.5 18.45 -32.35 17.75 -33.05 16.2 -32.6 16.25 -32.45 16.35 -32.05 16.15 -31.75 1.7 -17.3 Q1.5 -17.1 1.25 -17.05 1.0 -17.1 0.85 -17.25 L1.8 -16.3 Q1.8 -16.6 1.95 -16.75 L6.15 -20.95 6.25 -21.05 Q6.4 -21.2 6.6 -21.2 L7.0 -21.2 9.55 -20.15 9.75 -19.95 11.4 -18.1 11.5 -17.7 11.55 -15.15 11.4 -14.8 11.15 -14.55 10.75 -14.45 6.8 -15.1 6.2 -14.5 Q6.0 -14.3 5.75 -14.25 5.5 -14.3 5.35 -14.45 M13.9 -32.1 L11.65 -31.55 6.45 -26.35 6.45 -24.75 -0.1 -18.2 0.1 -18.0 Q0.1 -18.3 0.25 -18.45 L13.9 -32.1" fill="#4f3773" fill-rule="evenodd" stroke="none"/>
    <path d="M14.1 -32.3 L13.9 -32.1 0.25 -18.45 Q0.1 -18.3 0.1 -18.0 L0.15 -17.75 0.25 -17.55 0.3 -17.5 0.45 -17.65 15.5 -32.7 15.4 -32.7 14.35 -32.45 14.1 -32.3 M6.15 -20.95 L1.95 -16.75 Q1.8 -16.6 1.8 -16.3 L1.8 -16.2 1.95 -15.85 2.15 -15.65 2.3 -15.8 7.35 -20.85 6.85 -21.05 6.5 -21.1 6.15 -20.95 M14.85 -28.35 L18.5 -32.0 18.3 -32.2 17.85 -32.35 17.4 -32.2 14.6 -29.4 14.45 -29.05 Q14.35 -28.85 14.5 -28.6 L14.75 -28.25 14.85 -28.35 M13.25 -28.05 L7.9 -22.7 7.7 -22.3 7.8 -21.9 8.1 -21.6 8.25 -21.75 14.35 -27.85 14.25 -27.95 14.0 -28.2 13.6 -28.2 13.25 -28.05" fill="#be8de0" fill-rule="evenodd" stroke="none"/>
    <path d="M2.0 -14.7 L2.7 -15.4 2.3 -15.8 2.15 -15.65 1.95 -15.85 1.8 -16.2 1.8 -16.3 0.85 -17.25 0.45 -17.65 0.3 -17.5 0.25 -17.55 0.15 -17.75 -0.45 -17.15 0.25 -16.45 -0.25 -15.95 0.2 -15.5 0.7 -16.0 1.05 -15.65 0.55 -15.15 0.95 -14.75 1.45 -15.25 2.0 -14.7 M0.1 -14.6 L-14.9 0.4 -14.4 0.9 0.6 -14.1 0.1 -14.6" fill="#7584a4" fill-rule="evenodd" stroke="none"/>
    <path d="M4.25 -15.55 L5.35 -14.45 Q5.5 -14.3 5.75 -14.25 6.0 -14.3 6.2 -14.5 L6.8 -15.1 10.75 -14.45 11.15 -14.55 11.4 -14.8 11.55 -15.15 11.5 -17.7 11.4 -18.1 9.75 -19.95 9.55 -20.15 7.0 -21.2 6.6 -21.2 Q6.4 -21.2 6.25 -21.05 L6.15 -20.95 6.5 -21.1 6.85 -21.05 7.35 -20.85 2.3 -15.8 2.7 -15.4 Q2.85 -15.25 3.1 -15.2 3.35 -15.25 3.55 -15.45 L3.95 -15.85 4.25 -15.55 M13.95 -21.55 L14.5 -20.9 15.9 -21.6 20.1 -15.9 19.9 -14.5 21.9 -14.1 22.05 -14.65 22.1 -14.9 22.0 -15.1 14.35 -28.05 14.1 -28.3 13.75 -28.35 13.4 -28.2 13.25 -28.05 13.6 -28.2 14.0 -28.2 14.25 -27.95 14.35 -27.85 8.25 -21.75 Q8.85 -21.45 9.45 -21.25 L9.85 -21.15 13.7 -21.9 13.95 -21.55 M19.15 -31.65 L18.45 -32.35 18.0 -32.5 17.5 -32.3 17.4 -32.2 17.85 -32.35 18.3 -32.2 18.5 -32.0 14.85 -28.35 16.2 -26.0 17.95 -25.55 21.7 -17.9 21.4 -17.2 21.55 -16.85 22.0 -16.5 22.45 -16.55 22.75 -16.95 23.05 -17.85 23.0 -18.3 22.35 -19.55 22.3 -19.6 19.25 -31.35 19.15 -31.65 M16.2 -32.6 L15.95 -32.75 15.55 -32.85 14.5 -32.6 14.2 -32.4 14.1 -32.3 14.35 -32.45 15.4 -32.7 15.5 -32.7 0.45 -17.65 0.85 -17.25 Q1.0 -17.1 1.25 -17.05 1.5 -17.1 1.7 -17.3 L16.15 -31.75 16.35 -32.05 16.25 -32.45 16.2 -32.6" fill="#7653ac" fill-rule="evenodd" stroke="none"/>
  </g>
</svg>
