<?xml version="1.0" encoding="UTF-8" standalone="no"?>
<svg xmlns:xlink="http://www.w3.org/1999/xlink" height="34.3px" width="26.1px" xmlns="http://www.w3.org/2000/svg">
  <g transform="matrix(1.0, 0.0, 0.0, 1.0, 13.05, 32.3)">
    <path d="M3.35 -32.3 Q4.25 -32.3 4.9 -31.7 L12.45 -24.6 Q13.05 -24.05 13.05 -23.2 L13.05 -7.1 Q13.05 -6.25 12.45 -5.65 L4.9 1.45 Q4.25 2.0 3.35 2.0 L-3.4 2.0 Q-4.3 2.0 -4.9 1.45 L-12.45 -5.65 Q-13.05 -6.25 -13.05 -7.1 L-13.05 -23.2 Q-13.05 -24.05 -12.45 -24.6 L-4.9 -31.7 Q-4.3 -32.3 -3.4 -32.3 L3.35 -32.3" fill="#ffffcc" fill-opacity="0.3019608" fill-rule="evenodd" stroke="none"/>
    <path d="M9.45 -21.05 L9.85 -20.65 9.9 -20.65 10.0 -20.5 Q10.45 -19.5 10.65 -9.55 L10.55 -9.2 Q10.55 -9.05 10.1 -9.05 L10.0 -9.1 Q9.75 -8.8 9.4 -8.8 L9.0 -8.9 Q8.5 -9.35 8.35 -11.0 L8.35 -13.25 Q8.3 -15.4 8.4 -17.3 L8.4 -17.35 Q8.55 -20.7 9.25 -21.0 L9.45 -21.05 M4.15 -20.65 L4.6 -18.65 4.7 -13.0 4.6 -9.5 4.45 -8.2 4.15 -8.0 4.0 -7.95 3.75 -7.95 3.65 -7.95 3.05 -8.15 Q2.6 -7.6 1.45 -7.6 L-0.5 -7.7 -1.4 -7.9 -1.85 -8.1 -2.3 -8.5 -2.25 -8.55 Q-0.45 -8.55 -0.45 -9.7 L-0.1 -9.7 0.15 -9.7 0.35 -9.7 2.85 -9.55 2.75 -12.3 Q3.25 -12.3 3.75 -15.4 L3.65 -15.65 3.95 -20.95 4.0 -20.95 3.95 -20.85 3.95 -20.8 4.0 -20.65 4.15 -20.65 M9.35 -6.25 L7.7 -4.7 5.15 -2.5 4.7 -2.95 Q4.7 -3.65 5.95 -4.7 L8.1 -6.25 9.35 -6.25 M-2.85 -6.75 L-2.65 -6.45 -2.75 -6.0 -3.05 -4.7 Q-3.35 -3.6 -3.75 -3.3 -4.55 -3.55 -4.55 -3.75 L-4.45 -4.7 -3.65 -6.55 -3.35 -6.75 -3.05 -6.85 -2.85 -6.75 M4.45 -26.65 L4.5 -26.95 4.6 -26.95 4.85 -26.95 Q6.6 -26.95 9.4 -23.65 9.4 -23.05 8.7 -23.05 L8.25 -23.4 4.6 -26.5 4.45 -26.65 M-0.15 -29.1 L1.4 -29.2 Q2.0 -29.2 2.15 -28.8 0.2 -28.7 -1.4 -28.0 L-1.9 -27.75 -2.05 -27.85 -2.15 -28.25 Q-2.15 -29.1 -0.7 -29.1 L-0.25 -29.05 -0.15 -29.1 M3.3 -25.4 L3.3 -24.2 Q2.75 -23.2 0.4 -23.2 L-0.55 -23.25 -0.95 -23.2 -1.5 -23.6 Q-1.85 -23.85 -1.85 -24.3 L-1.75 -24.3 Q-0.45 -24.3 1.25 -24.95 3.0 -25.1 3.3 -25.4 M-3.7 -14.5 Q-3.75 -11.7 -4.4 -9.95 L-4.65 -9.4 Q-5.65 -7.55 -7.7 -7.45 -7.95 -7.9 -8.8 -7.9 L-8.5 -8.85 -7.05 -9.5 -7.05 -9.8 -6.55 -9.7 Q-5.35 -9.7 -5.25 -14.05 L-5.5 -15.7 Q-5.15 -20.2 -6.5 -20.2 -7.1 -20.2 -7.4 -19.5 L-7.05 -20.2 -8.95 -20.2 -9.1 -20.45 -9.45 -20.2 -9.35 -20.2 -9.55 -20.2 -9.5 -20.15 Q-10.05 -19.4 -10.1 -16.45 L-9.8 -12.6 -9.8 -10.65 -9.6 -9.25 -9.95 -8.15 -10.0 -8.15 -10.0 -8.1 -10.3 -11.7 -10.45 -15.3 Q-10.5 -19.9 -10.0 -21.4 L-9.8 -20.95 -6.95 -21.4 Q-3.9 -21.4 -3.55 -20.25 L-3.5 -20.2 -3.85 -18.25 -3.7 -14.8 -3.7 -14.5 M-2.7 -1.45 L-2.85 -1.65 -2.85 -1.7 Q-2.85 -2.2 -0.4 -2.2 L2.7 -1.95 3.35 -1.75 3.0 -1.35 -0.4 -1.15 -2.7 -1.45 M-4.15 -28.05 Q-3.25 -28.05 -3.15 -24.3 -3.2 -22.45 -8.1 -22.45 L-9.3 -22.6 -9.35 -23.05 Q-9.35 -23.35 -4.15 -28.05" fill="#ffffff" fill-rule="evenodd" stroke="none"/>
    <path d="M3.85 -6.95 L3.8 -6.75 3.75 -6.85 3.7 -6.95 3.85 -6.95" fill="#00236c" fill-rule="evenodd" stroke="none"/>
    <path d="M4.0 -23.7 L4.0 -21.8 3.25 -21.6 3.3 -21.85 3.25 -22.05 3.1 -22.05 3.3 -22.05 3.2 -23.6 3.3 -24.2 Q3.4 -24.85 3.8 -24.85 L4.0 -23.7 M5.2 -20.65 L4.15 -20.65 4.0 -20.65 3.95 -20.8 4.0 -20.7 5.55 -21.45 5.8 -21.2 5.2 -20.65 M4.0 -7.95 L4.0 -7.9 4.35 -7.9 Q4.75 -7.9 4.85 -7.6 L5.15 -7.6 6.6 -7.85 Q7.45 -7.7 7.45 -7.25 7.45 -6.75 6.75 -6.75 L4.8 -6.8 4.5 -7.0 4.0 -6.95 3.85 -6.95 3.7 -6.95 3.75 -6.85 3.7 -6.85 4.2 -4.85 Q4.2 -4.4 3.75 -4.4 2.9 -4.4 2.85 -6.85 L2.65 -6.85 2.7 -7.1 2.7 -7.15 -0.75 -7.15 -0.8 -7.15 -0.85 -7.45 -0.5 -7.7 1.45 -7.6 Q2.6 -7.6 3.05 -8.15 L3.65 -7.95 3.75 -7.95 4.0 -7.95 M-4.4 -9.95 L-4.3 -10.0 Q-3.65 -10.0 -4.0 -8.15 L-1.85 -8.1 -1.4 -7.9 -1.35 -7.85 Q-1.4 -7.25 -2.4 -7.2 L-2.8 -7.15 -3.4 -7.15 -3.55 -6.8 -4.0 -6.2 -4.85 -5.35 Q-5.45 -4.85 -5.4 -4.3 L-5.5 -4.2 -5.75 -4.2 -5.85 -4.4 Q-5.85 -4.9 -4.65 -7.15 L-4.65 -7.2 -5.05 -7.15 -5.25 -7.15 Q-5.8 -7.2 -5.75 -7.55 -4.7 -8.2 -4.7 -8.8 L-4.65 -9.4 -4.4 -9.95 M-0.45 -9.7 L-0.75 -9.7 -0.8 -9.75 -0.4 -10.25 0.75 -10.6 1.5 -11.55 2.75 -12.95 2.75 -12.3 2.85 -9.55 0.35 -9.7 0.15 -9.7 -0.1 -9.7 -0.45 -9.7" fill="#f9cce4" fill-rule="evenodd" stroke="none"/>
    <path d="M6.6 -7.85 L6.85 -7.9 9.4 -7.45 10.4 -6.85 Q10.4 -6.25 9.4 -6.25 L9.35 -6.25 8.1 -6.25 5.65 -6.55 4.5 -6.3 4.6 -5.4 4.3 -4.7 4.65 -2.6 Q4.6 -1.3 4.0 -1.3 3.2 -1.3 2.6 -6.7 L2.65 -6.85 2.85 -6.85 Q2.9 -4.4 3.75 -4.4 4.2 -4.4 4.2 -4.85 L3.7 -6.85 3.75 -6.85 3.8 -6.75 3.85 -6.95 4.0 -6.95 4.5 -7.0 4.8 -6.8 6.75 -6.75 Q7.45 -6.75 7.45 -7.25 7.45 -7.7 6.6 -7.85" fill="#d8a6f9" fill-rule="evenodd" stroke="none"/>
    <path d="M-2.3 -12.3 L-2.3 -12.6 -2.0 -14.3 -2.45 -15.5 Q-2.15 -15.9 -2.15 -17.1 L-2.2 -17.2 Q-2.0 -17.4 -2.0 -17.9 L-2.25 -19.6 Q-2.3 -21.05 -0.7 -21.05 L0.8 -20.9 1.6 -20.8 1.4 -20.5 Q1.15 -20.3 0.55 -20.2 L0.5 -20.2 0.35 -20.15 0.35 -19.45 0.3 -17.95 0.95 -19.6 0.75 -17.7 -1.1 -11.8 -1.25 -11.8 -1.4 -12.45 -1.8 -11.8 -2.3 -12.3 M-5.75 -7.15 L-5.75 -6.95 -5.35 -6.25 -6.55 -3.35 -8.25 -5.05 -9.3 -6.35 Q-9.6 -6.75 -10.3 -7.15 L-10.15 -7.15 -9.85 -7.05 -9.9 -7.15 -9.35 -7.15 -8.1 -6.85 -7.65 -7.15 -5.75 -7.15" fill="#3361b7" fill-rule="evenodd" stroke="none"/>
    <path d="M-3.55 -20.25 L-3.8 -20.7 -3.7 -21.55 -3.7 -21.6 -10.9 -21.6 -10.8 -22.05 Q-10.65 -23.3 -10.35 -23.6 -9.6 -24.3 -6.95 -26.0 -6.15 -26.65 -4.75 -28.4 L-2.9 -29.5 -2.9 -22.3 1.5 -22.45 Q2.5 -22.45 2.5 -22.1 L2.55 -22.1 2.5 -21.95 2.15 -21.65 0.15 -21.7 -0.55 -21.7 -2.0 -21.7 -2.7 -21.55 -2.65 -20.95 -2.9 -20.55 -2.95 -20.45 -3.0 -19.5 -3.15 -19.2 -3.3 -17.95 -3.05 -15.7 Q-3.05 -14.25 -3.4 -14.25 L-3.7 -14.5 -3.7 -14.8 -3.85 -18.25 -3.5 -20.2 -3.55 -20.25 M-4.15 -28.05 Q-9.35 -23.35 -9.35 -23.05 L-9.3 -22.6 -8.1 -22.45 Q-3.2 -22.45 -3.15 -24.3 -3.25 -28.05 -4.15 -28.05" fill="#fcf3e4" fill-rule="evenodd" stroke="none"/>
    <path d="M4.0 -24.6 L4.0 -23.7 3.8 -24.85 Q3.4 -24.85 3.3 -24.2 L3.3 -25.4 3.3 -25.65 Q3.4 -27.2 3.1 -27.8 L2.05 -27.45 2.1 -27.45 2.75 -28.45 Q2.75 -29.35 1.7 -29.35 L-0.15 -29.1 -0.25 -29.05 -0.7 -29.1 Q-2.15 -29.1 -2.15 -28.25 L-2.05 -27.85 -2.5 -26.85 Q-2.5 -26.4 -1.85 -26.2 L-2.0 -26.15 -2.0 -25.5 -1.85 -24.4 -1.85 -24.3 Q-1.85 -23.85 -1.5 -23.6 L-0.95 -23.2 -0.55 -23.25 0.4 -23.2 Q2.75 -23.2 3.3 -24.2 L3.2 -23.6 3.3 -22.05 3.1 -22.05 3.25 -22.05 3.3 -21.85 3.25 -21.6 4.0 -21.8 4.9 -21.55 6.05 -21.95 10.25 -22.6 Q11.45 -22.6 11.4 -22.0 11.4 -21.4 9.45 -21.05 L9.25 -21.0 7.95 -20.85 5.2 -20.65 5.8 -21.2 5.55 -21.45 4.0 -20.7 3.95 -20.8 3.95 -20.85 4.0 -20.95 3.95 -20.95 3.8 -21.05 3.65 -21.05 3.6 -21.0 3.4 -20.85 Q2.6 -19.85 2.75 -13.0 L2.75 -12.95 1.5 -11.55 0.75 -10.6 -0.4 -10.25 -0.8 -9.75 -0.75 -9.7 -0.45 -9.7 Q-2.4 -9.65 -2.4 -8.9 L-2.3 -8.5 -1.85 -8.1 -4.0 -8.15 Q-3.65 -10.0 -4.3 -10.0 L-4.4 -9.95 Q-3.75 -11.7 -3.7 -14.5 L-3.4 -14.25 Q-3.05 -14.25 -3.05 -15.7 L-3.3 -17.95 -3.15 -19.2 -3.0 -19.5 -2.95 -20.45 -2.9 -20.55 -2.65 -20.95 -2.7 -21.55 -2.0 -21.7 -0.55 -21.7 0.15 -21.7 2.15 -21.65 2.5 -21.95 2.55 -22.1 2.5 -22.1 Q2.5 -22.45 1.5 -22.45 L-2.9 -22.3 -2.9 -29.5 -4.75 -28.4 Q-6.15 -26.65 -6.95 -26.0 -9.6 -24.3 -10.35 -23.6 -10.65 -23.3 -10.8 -22.05 L-10.9 -21.6 -3.7 -21.6 -3.7 -21.55 -3.8 -20.7 -3.55 -20.25 Q-3.9 -21.4 -6.95 -21.4 L-9.8 -20.95 -10.0 -21.4 Q-10.5 -19.9 -10.45 -15.3 L-10.3 -11.7 -10.0 -8.1 -10.0 -8.15 -9.95 -8.15 -9.6 -9.25 -9.45 -9.5 -9.45 -10.9 -9.3 -10.9 Q-8.9 -10.9 -7.8 -15.35 L-7.4 -16.9 -6.95 -12.5 -7.05 -9.8 -7.05 -9.5 -8.5 -8.85 -8.8 -7.9 Q-7.95 -7.9 -7.7 -7.45 -5.65 -7.55 -4.65 -9.4 L-4.7 -8.8 Q-4.7 -8.2 -5.75 -7.55 -5.8 -7.2 -5.25 -7.15 L-5.05 -7.15 -4.65 -7.2 -4.65 -7.15 Q-5.85 -4.9 -5.85 -4.4 L-5.75 -4.2 -5.5 -4.2 -5.4 -4.3 Q-5.45 -4.85 -4.85 -5.35 L-4.0 -6.2 -3.55 -6.8 -3.4 -7.15 -2.8 -7.15 -2.4 -7.2 Q-1.4 -7.25 -1.35 -7.85 L-1.4 -7.9 -0.5 -7.7 -0.85 -7.45 -0.8 -7.15 -0.75 -7.15 -2.05 -6.85 -2.75 -6.65 -2.85 -6.75 -3.05 -6.85 -3.35 -6.75 -3.65 -6.55 -4.45 -4.7 Q-5.75 -2.0 -6.05 -2.0 L-6.1 -2.0 -11.55 -6.8 -11.55 -22.9 -3.5 -30.0 3.75 -30.0 4.0 -29.75 4.0 -24.6 M1.4 -20.5 L1.6 -20.8 0.8 -20.9 -0.7 -21.05 Q-2.3 -21.05 -2.25 -19.6 L-2.0 -17.9 Q-2.0 -17.4 -2.2 -17.2 L-2.15 -17.1 Q-2.15 -15.9 -2.45 -15.5 L-2.0 -14.3 -2.3 -12.6 -2.3 -12.3 -2.8 -11.8 Q-2.8 -10.75 -1.35 -10.75 1.9 -10.75 2.15 -17.6 2.45 -20.25 1.4 -20.5 M0.35 -19.45 L0.35 -20.15 0.5 -20.2 0.55 -20.2 0.35 -19.9 0.35 -19.45 M-5.75 -7.15 L-7.65 -7.15 -8.1 -6.85 -9.35 -7.15 -9.9 -7.15 -9.85 -7.05 -10.15 -7.15 -10.3 -7.15 Q-9.6 -6.75 -9.3 -6.35 L-8.25 -5.05 -6.55 -3.35 -5.35 -6.25 -5.75 -6.95 -5.75 -7.15" fill="#c8a6ff" fill-rule="evenodd" stroke="none"/>
    <path d="M4.0 -24.6 Q4.0 -24.3 4.9 -23.5 5.9 -22.65 6.7 -22.65 8.0 -22.65 8.25 -23.4 L8.7 -23.05 Q9.4 -23.05 9.4 -23.65 6.6 -26.95 4.85 -26.95 L4.6 -26.95 4.5 -26.95 4.45 -26.65 Q4.15 -26.5 4.15 -25.95 L4.0 -24.6 4.0 -29.75 11.75 -22.9 11.75 -6.8 3.75 0.3 -3.5 0.3 -6.1 -2.0 -6.05 -2.0 Q-5.75 -2.0 -4.45 -4.7 L-4.55 -3.75 Q-4.55 -3.55 -3.75 -3.3 -3.35 -3.6 -3.05 -4.7 L-2.75 -6.0 -2.65 -6.45 -2.85 -6.75 -2.75 -6.65 -2.05 -6.85 -0.75 -7.15 2.7 -7.15 2.7 -7.1 2.65 -6.85 2.6 -6.7 Q3.2 -1.3 4.0 -1.3 4.6 -1.3 4.65 -2.6 L4.3 -4.7 4.6 -5.4 4.5 -6.3 5.65 -6.55 8.1 -6.25 5.95 -4.7 Q4.7 -3.65 4.7 -2.95 L5.15 -2.5 7.7 -4.7 9.35 -6.25 9.4 -6.25 Q10.4 -6.25 10.4 -6.85 L9.4 -7.45 6.85 -7.9 6.6 -7.85 5.15 -7.6 4.85 -7.6 Q4.75 -7.9 4.35 -7.9 L4.0 -7.9 4.0 -7.95 4.15 -8.0 4.45 -8.2 4.6 -9.5 4.7 -13.0 4.6 -18.65 4.15 -20.65 5.2 -20.65 7.95 -20.85 9.25 -21.0 Q8.55 -20.7 8.4 -17.35 L8.2 -17.35 Q7.35 -17.35 6.95 -15.5 L6.65 -13.35 5.2 -9.2 Q5.2 -8.2 6.65 -8.2 8.25 -8.2 9.0 -8.9 L9.4 -8.8 Q9.75 -8.8 10.0 -9.1 L10.1 -9.05 Q10.55 -9.05 10.55 -9.2 L10.65 -9.55 Q10.45 -19.5 10.0 -20.5 L9.9 -20.65 9.85 -20.65 9.45 -21.05 Q11.4 -21.4 11.4 -22.0 11.45 -22.6 10.25 -22.6 L6.05 -21.95 4.9 -21.55 4.0 -21.8 4.0 -23.7 4.0 -24.6 M-2.7 -1.45 L-0.4 -1.15 3.0 -1.35 3.35 -1.75 2.7 -1.95 Q3.05 -2.1 3.05 -2.8 3.05 -3.35 1.8 -3.9 0.55 -4.45 -0.7 -4.45 -1.55 -4.45 -3.65 -2.35 -3.65 -1.65 -2.7 -1.45" fill="#1692ab" fill-rule="evenodd" stroke="none"/>
    <path d="M8.25 -23.4 Q8.0 -22.65 6.7 -22.65 5.9 -22.65 4.9 -23.5 4.0 -24.3 4.0 -24.6 L4.15 -25.95 Q4.15 -26.5 4.45 -26.65 L4.6 -26.5 8.25 -23.4 M9.0 -8.9 Q8.25 -8.2 6.65 -8.2 5.2 -8.2 5.2 -9.2 L6.65 -13.35 6.95 -15.5 Q7.35 -17.35 8.2 -17.35 L8.4 -17.35 8.4 -17.3 Q8.3 -15.4 8.35 -13.25 L8.35 -11.0 Q8.5 -9.35 9.0 -8.9 M2.7 -1.95 L-0.4 -2.2 Q-2.85 -2.2 -2.85 -1.7 L-2.85 -1.65 -2.7 -1.45 Q-3.65 -1.65 -3.65 -2.35 -1.55 -4.45 -0.7 -4.45 0.55 -4.45 1.8 -3.9 3.05 -3.35 3.05 -2.8 3.05 -2.1 2.7 -1.95" fill="#7ebdd1" fill-rule="evenodd" stroke="none"/>
    <path d="M-0.15 -29.1 L1.7 -29.35 Q2.75 -29.35 2.75 -28.45 L2.1 -27.45 2.05 -27.45 -0.85 -26.5 -0.95 -26.45 -1.75 -26.25 -1.85 -26.2 Q-2.5 -26.4 -2.5 -26.85 L-2.05 -27.85 -1.9 -27.75 -1.4 -28.0 Q0.2 -28.7 2.15 -28.8 2.0 -29.2 1.4 -29.2 L-0.15 -29.1 M1.4 -20.5 Q2.45 -20.25 2.15 -17.6 1.9 -10.75 -1.35 -10.75 -2.8 -10.75 -2.8 -11.8 L-2.3 -12.3 -1.8 -11.8 -1.4 -12.45 -1.25 -11.8 -1.1 -11.8 0.75 -17.7 0.95 -19.6 0.3 -17.95 0.35 -19.45 0.35 -19.9 0.55 -20.2 Q1.15 -20.3 1.4 -20.5 M-9.5 -20.15 L-9.55 -20.2 -9.35 -20.2 -8.95 -20.2 -7.05 -20.2 -7.4 -19.5 -7.6 -18.45 -7.4 -16.9 -7.8 -15.35 Q-8.9 -10.9 -9.3 -10.9 L-9.45 -10.9 -9.15 -18.85 -9.5 -20.15" fill="#9e64ff" fill-rule="evenodd" stroke="none"/>
    <path d="M-1.85 -26.2 L-1.75 -26.25 -0.95 -26.45 -0.85 -26.5 2.05 -27.45 3.1 -27.8 Q3.4 -27.2 3.3 -25.65 L3.3 -25.4 Q3.0 -25.1 1.25 -24.95 -0.45 -24.3 -1.75 -24.3 L-1.85 -24.3 -1.85 -24.4 -2.0 -25.5 -2.0 -26.15 -1.85 -26.2 M-2.3 -8.5 L-2.4 -8.9 Q-2.4 -9.65 -0.45 -9.7 -0.45 -8.55 -2.25 -8.55 L-2.3 -8.5 M2.75 -12.95 L2.75 -13.0 Q2.6 -19.85 3.4 -20.85 L3.6 -21.0 3.65 -21.05 3.8 -21.05 3.95 -20.95 3.65 -15.65 3.75 -15.4 Q3.25 -12.3 2.75 -12.3 L2.75 -12.95 M-9.6 -9.25 L-9.8 -10.65 -9.8 -12.6 -10.1 -16.45 Q-10.05 -19.4 -9.5 -20.15 L-9.15 -18.85 -9.45 -10.9 -9.45 -9.5 -9.6 -9.25 M-9.35 -20.2 L-9.45 -20.2 -9.1 -20.45 -8.95 -20.2 -9.35 -20.2 M-7.4 -19.5 Q-7.1 -20.2 -6.5 -20.2 -5.15 -20.2 -5.5 -15.7 L-5.25 -14.05 Q-5.35 -9.7 -6.55 -9.7 L-7.05 -9.8 -6.95 -12.5 -7.4 -16.9 -7.6 -18.45 -7.4 -19.5" fill="#eaddff" fill-rule="evenodd" stroke="none"/>
  </g>
</svg>
